<?xml version="1.0" standalone="no"?>
<!DOCTYPE svg PUBLIC "-//W3C//DTD SVG 20010904//EN"
 "http://www.w3.org/TR/2001/REC-SVG-20010904/DTD/svg10.dtd">
<svg version="1.0" xmlns="http://www.w3.org/2000/svg"
 width="257.000000pt" height="250.000000pt" viewBox="0 0 257.000000 250.000000"
 preserveAspectRatio="xMidYMid meet">

<g transform="translate(0.000000,250.000000) scale(0.100000,-0.100000)"
fill="#000000" stroke="none">
<path d="M1238 1920 c-310 -56 -534 -268 -594 -561 -50 -249 49 -511 256 -670
135 -105 275 -152 450 -152 199 0 367 69 505 208 140 141 195 265 203 455 5
140 -11 220 -69 337 -87 177 -257 312 -464 369 -63 18 -225 26 -287 14z m295
-154 c147 -50 263 -145 330 -273 170 -323 1 -703 -358 -809 -73 -21 -218 -24
-295 -5 -261 63 -445 294 -444 556 1 155 54 277 168 391 160 159 386 212 599
140z"/>
<path d="M1307 1592 c-14 -15 -17 -42 -17 -160 l0 -142 -143 0 c-161 0 -187
-8 -187 -60 0 -52 26 -60 187 -60 l143 0 0 -144 c0 -138 1 -146 22 -160 31
-22 51 -20 76 7 20 22 22 33 22 160 l0 137 136 0 c139 0 166 6 184 40 11 21
-1 57 -24 72 -6 4 -75 8 -153 8 l-143 0 0 140 c0 127 -2 142 -20 160 -25 25
-62 26 -83 2z"/>
</g>
</svg>
