<?xml version="1.0" standalone="no"?>
<!DOCTYPE svg PUBLIC "-//W3C//DTD SVG 20010904//EN"
 "http://www.w3.org/TR/2001/REC-SVG-20010904/DTD/svg10.dtd">
<svg version="1.0" xmlns="http://www.w3.org/2000/svg"
 width="500.000000pt" height="500.000000pt" viewBox="0 0 500.000000 500.000000"
 preserveAspectRatio="xMidYMid meet">

<g transform="translate(0.000000,500.000000) scale(0.100000,-0.100000)"
fill="#000000" stroke="none">
<path d="M2290 4309 c-124 -13 -309 -61 -451 -116 -421 -165 -753 -466 -963
-873 -178 -344 -239 -791 -160 -1175 52 -250 171 -512 336 -738 90 -123 298
-322 425 -407 315 -211 640 -310 1016 -310 183 0 305 15 462 55 324 84 587
236 830 480 254 254 418 554 492 902 25 119 27 145 28 368 0 212 -3 253 -23
355 -58 285 -161 515 -332 745 -382 510 -1011 781 -1660 714z m390 -159 c113
-12 305 -58 412 -99 744 -287 1172 -1034 1044 -1822 -41 -249 -153 -508 -313
-724 -67 -89 -190 -224 -233 -255 l-29 -20 -54 82 c-162 247 -363 404 -632
494 -313 104 -634 78 -935 -77 -165 -85 -340 -245 -438 -402 -71 -112 -58
-110 -141 -32 -179 170 -345 427 -430 669 -71 201 -106 507 -83 712 24 209 93
436 183 604 170 314 491 612 800 741 281 117 559 159 849 129z"/>
<path d="M2339 3365 c-177 -44 -337 -165 -432 -326 -110 -188 -116 -439 -15
-649 55 -114 177 -238 288 -292 208 -102 426 -103 630 -2 183 91 314 260 354
456 34 164 16 310 -56 457 -32 68 -57 101 -122 165 -91 91 -160 135 -268 174
-62 22 -93 26 -198 29 -82 1 -144 -2 -181 -12z"/>
</g>
</svg>
